<svg width="114" height="30" viewBox="0 0 114 30" fill="none" xmlns="http://www.w3.org/2000/svg">
<rect x="3" y="3" width="24" height="24" stroke="url(#paint0_linear_534_2573)" stroke-width="6"/>
<g clip-path="url(#clip0_534_2573)">
<rect x="3" y="3" width="24" height="24" stroke="url(#paint1_linear_534_2573)" stroke-width="6"/>
</g>
<g clip-path="url(#clip1_534_2573)">
<rect x="3" y="3" width="24" height="24" stroke="url(#paint2_linear_534_2573)" stroke-width="6"/>
</g>
<path d="M40.5762 1.00879V9.54004H38.8242V1.00879H40.5762ZM43.2012 1.00879V2.38574H36.2402V1.00879H43.2012ZM49.8926 4.4834V5.85449H45.4395V4.4834H49.8926ZM45.9609 1.00879V9.54004H44.2031V1.00879H45.9609ZM51.1465 1.00879V9.54004H49.3945V1.00879H51.1465ZM54.5449 1.00879V9.54004H52.793V1.00879H54.5449ZM60.6328 7.30762C60.6328 7.15527 60.6094 7.01855 60.5625 6.89746C60.5195 6.77246 60.4375 6.65918 60.3164 6.55762C60.1953 6.45215 60.0254 6.34863 59.8066 6.24707C59.5879 6.14551 59.3047 6.04004 58.957 5.93066C58.5703 5.80566 58.2031 5.66504 57.8555 5.50879C57.5117 5.35254 57.207 5.1709 56.9414 4.96387C56.6797 4.75293 56.4727 4.50879 56.3203 4.23145C56.1719 3.9541 56.0977 3.63184 56.0977 3.26465C56.0977 2.90918 56.1758 2.58691 56.332 2.29785C56.4883 2.00488 56.707 1.75488 56.9883 1.54785C57.2695 1.33691 57.6016 1.1748 57.9844 1.06152C58.3711 0.948242 58.7949 0.891602 59.2559 0.891602C59.8848 0.891602 60.4336 1.00488 60.9023 1.23145C61.3711 1.45801 61.7344 1.76855 61.9922 2.16309C62.2539 2.55762 62.3848 3.00879 62.3848 3.5166H60.6387C60.6387 3.2666 60.5859 3.04785 60.4805 2.86035C60.3789 2.66895 60.2227 2.51855 60.0117 2.40918C59.8047 2.2998 59.543 2.24512 59.2266 2.24512C58.9219 2.24512 58.668 2.29199 58.4648 2.38574C58.2617 2.47559 58.1094 2.59863 58.0078 2.75488C57.9062 2.90723 57.8555 3.0791 57.8555 3.27051C57.8555 3.41504 57.8906 3.5459 57.9609 3.66309C58.0352 3.78027 58.1445 3.88965 58.2891 3.99121C58.4336 4.09277 58.6113 4.18848 58.8223 4.27832C59.0332 4.36816 59.2773 4.45605 59.5547 4.54199C60.0195 4.68262 60.4277 4.84082 60.7793 5.0166C61.1348 5.19238 61.4316 5.38965 61.6699 5.6084C61.9082 5.82715 62.0879 6.0752 62.209 6.35254C62.3301 6.62988 62.3906 6.94434 62.3906 7.2959C62.3906 7.66699 62.3184 7.99902 62.1738 8.29199C62.0293 8.58496 61.8203 8.83301 61.5469 9.03613C61.2734 9.23926 60.9473 9.39355 60.5684 9.49902C60.1895 9.60449 59.7656 9.65723 59.2969 9.65723C58.875 9.65723 58.459 9.60254 58.0488 9.49316C57.6387 9.37988 57.2656 9.20996 56.9297 8.9834C56.5977 8.75684 56.332 8.46777 56.1328 8.11621C55.9336 7.76465 55.834 7.34863 55.834 6.86816H57.5977C57.5977 7.13379 57.6387 7.3584 57.7207 7.54199C57.8027 7.72559 57.918 7.87402 58.0664 7.9873C58.2188 8.10059 58.3984 8.18262 58.6055 8.2334C58.8164 8.28418 59.0469 8.30957 59.2969 8.30957C59.6016 8.30957 59.8516 8.2666 60.0469 8.18066C60.2461 8.09473 60.3926 7.97559 60.4863 7.82324C60.584 7.6709 60.6328 7.49902 60.6328 7.30762ZM68.4434 1.00879V9.54004H66.6914V1.00879H68.4434ZM74.5312 7.30762C74.5312 7.15527 74.5078 7.01855 74.4609 6.89746C74.418 6.77246 74.3359 6.65918 74.2148 6.55762C74.0938 6.45215 73.9238 6.34863 73.7051 6.24707C73.4863 6.14551 73.2031 6.04004 72.8555 5.93066C72.4688 5.80566 72.1016 5.66504 71.7539 5.50879C71.4102 5.35254 71.1055 5.1709 70.8398 4.96387C70.5781 4.75293 70.3711 4.50879 70.2188 4.23145C70.0703 3.9541 69.9961 3.63184 69.9961 3.26465C69.9961 2.90918 70.0742 2.58691 70.2305 2.29785C70.3867 2.00488 70.6055 1.75488 70.8867 1.54785C71.168 1.33691 71.5 1.1748 71.8828 1.06152C72.2695 0.948242 72.6934 0.891602 73.1543 0.891602C73.7832 0.891602 74.332 1.00488 74.8008 1.23145C75.2695 1.45801 75.6328 1.76855 75.8906 2.16309C76.1523 2.55762 76.2832 3.00879 76.2832 3.5166H74.5371C74.5371 3.2666 74.4844 3.04785 74.3789 2.86035C74.2773 2.66895 74.1211 2.51855 73.9102 2.40918C73.7031 2.2998 73.4414 2.24512 73.125 2.24512C72.8203 2.24512 72.5664 2.29199 72.3633 2.38574C72.1602 2.47559 72.0078 2.59863 71.9062 2.75488C71.8047 2.90723 71.7539 3.0791 71.7539 3.27051C71.7539 3.41504 71.7891 3.5459 71.8594 3.66309C71.9336 3.78027 72.043 3.88965 72.1875 3.99121C72.332 4.09277 72.5098 4.18848 72.7207 4.27832C72.9316 4.36816 73.1758 4.45605 73.4531 4.54199C73.918 4.68262 74.3262 4.84082 74.6777 5.0166C75.0332 5.19238 75.3301 5.38965 75.5684 5.6084C75.8066 5.82715 75.9863 6.0752 76.1074 6.35254C76.2285 6.62988 76.2891 6.94434 76.2891 7.2959C76.2891 7.66699 76.2168 7.99902 76.0723 8.29199C75.9277 8.58496 75.7188 8.83301 75.4453 9.03613C75.1719 9.23926 74.8457 9.39355 74.4668 9.49902C74.0879 9.60449 73.6641 9.65723 73.1953 9.65723C72.7734 9.65723 72.3574 9.60254 71.9473 9.49316C71.5371 9.37988 71.1641 9.20996 70.8281 8.9834C70.4961 8.75684 70.2305 8.46777 70.0312 8.11621C69.832 7.76465 69.7324 7.34863 69.7324 6.86816H71.4961C71.4961 7.13379 71.5371 7.3584 71.6191 7.54199C71.7012 7.72559 71.8164 7.87402 71.9648 7.9873C72.1172 8.10059 72.2969 8.18262 72.5039 8.2334C72.7148 8.28418 72.9453 8.30957 73.1953 8.30957C73.5 8.30957 73.75 8.2666 73.9453 8.18066C74.1445 8.09473 74.291 7.97559 74.3848 7.82324C74.4824 7.6709 74.5312 7.49902 74.5312 7.30762Z" fill="white"/>
<path d="M38.5049 17.0032H41.0186L43.875 25.9065L46.7314 17.0032H49.2451L44.8945 29.8H42.8555L38.5049 17.0032ZM36.9756 17.0032H39.5771L40.0605 26.8118V29.8H36.9756V17.0032ZM48.1729 17.0032H50.7832V29.8H47.6895V26.8118L48.1729 17.0032ZM54.835 17.0032L57.1904 22.5579L59.5547 17.0032H62.877L58.7637 25.2034V29.8H55.626V25.2034L51.5039 17.0032H54.835ZM76.7549 27.427V29.8H70.2861V27.427H76.7549ZM71.3848 17.0032V29.8H68.2998V17.0032H71.3848ZM88.3213 23.1467V23.6653C88.3213 24.6438 88.1836 25.5227 87.9082 26.302C87.6387 27.0754 87.2549 27.7375 86.7568 28.2883C86.2588 28.8333 85.6699 29.2522 84.9902 29.5452C84.3105 29.8323 83.5605 29.9758 82.7402 29.9758C81.9141 29.9758 81.1582 29.8323 80.4727 29.5452C79.793 29.2522 79.2012 28.8333 78.6973 28.2883C78.1992 27.7375 77.8125 27.0754 77.5371 26.302C77.2676 25.5227 77.1328 24.6438 77.1328 23.6653V23.1467C77.1328 22.1682 77.2676 21.2893 77.5371 20.51C77.8125 19.7307 78.1963 19.0686 78.6885 18.5237C79.1865 17.9729 79.7754 17.554 80.4551 17.2668C81.1406 16.9739 81.8965 16.8274 82.7227 16.8274C83.543 16.8274 84.293 16.9739 84.9727 17.2668C85.6582 17.554 86.25 17.9729 86.748 18.5237C87.2461 19.0686 87.6328 19.7307 87.9082 20.51C88.1836 21.2893 88.3213 22.1682 88.3213 23.1467ZM85.1924 23.6653V23.1292C85.1924 22.4963 85.1367 21.9397 85.0254 21.4592C84.9199 20.9729 84.7617 20.5657 84.5508 20.2375C84.3398 19.9094 84.0791 19.6633 83.7686 19.4993C83.4639 19.3293 83.1152 19.2444 82.7227 19.2444C82.3125 19.2444 81.9551 19.3293 81.6504 19.4993C81.3457 19.6633 81.0908 19.9094 80.8857 20.2375C80.6807 20.5657 80.5254 20.9729 80.4199 21.4592C80.3203 21.9397 80.2705 22.4963 80.2705 23.1292V23.6653C80.2705 24.2922 80.3203 24.8489 80.4199 25.3352C80.5254 25.8157 80.6807 26.2229 80.8857 26.5569C81.0967 26.8909 81.3545 27.1428 81.6592 27.3127C81.9697 27.4827 82.3301 27.5676 82.7402 27.5676C83.1328 27.5676 83.4814 27.4827 83.7861 27.3127C84.0908 27.1428 84.3457 26.8909 84.5508 26.5569C84.7617 26.2229 84.9199 25.8157 85.0254 25.3352C85.1367 24.8489 85.1924 24.2922 85.1924 23.6653ZM100.389 22.9622V28.218C100.172 28.4583 99.8379 28.7161 99.3867 28.9915C98.9414 29.261 98.3789 29.4924 97.6992 29.6858C97.0195 29.8792 96.2197 29.9758 95.2998 29.9758C94.4502 29.9758 93.6797 29.8411 92.9883 29.5715C92.2969 29.2961 91.7021 28.8948 91.2041 28.3674C90.7119 27.8342 90.3311 27.1838 90.0615 26.4163C89.7979 25.6428 89.666 24.7581 89.666 23.762V23.05C89.666 22.054 89.8008 21.1692 90.0703 20.3958C90.3398 19.6223 90.7178 18.9719 91.2041 18.4446C91.6963 17.9114 92.2734 17.5071 92.9355 17.2317C93.6035 16.9563 94.3359 16.8186 95.1328 16.8186C96.3105 16.8186 97.2686 17.0061 98.0068 17.3811C98.7451 17.7502 99.3047 18.2629 99.6855 18.9192C100.066 19.5696 100.298 20.3225 100.38 21.178H97.418C97.3594 20.7561 97.248 20.3987 97.084 20.1057C96.9258 19.8069 96.6973 19.5813 96.3984 19.429C96.0996 19.2708 95.7129 19.1917 95.2383 19.1917C94.8691 19.1917 94.5322 19.2708 94.2275 19.429C93.9287 19.5872 93.6738 19.8274 93.4629 20.1497C93.252 20.4661 93.0879 20.8645 92.9707 21.345C92.8594 21.8254 92.8037 22.3879 92.8037 23.0325V23.762C92.8037 24.4006 92.8564 24.9602 92.9619 25.4407C93.0732 25.9211 93.2373 26.3225 93.4541 26.6448C93.6768 26.9612 93.958 27.2014 94.2979 27.3655C94.6436 27.5237 95.0508 27.6028 95.5195 27.6028C95.8477 27.6028 96.1289 27.5764 96.3633 27.5237C96.5977 27.4651 96.791 27.3948 96.9434 27.3127C97.1016 27.2249 97.2217 27.1428 97.3037 27.0667V25.0803H95.1592V22.9622H100.389ZM113.019 23.1467V23.6653C113.019 24.6438 112.881 25.5227 112.605 26.302C112.336 27.0754 111.952 27.7375 111.454 28.2883C110.956 28.8333 110.367 29.2522 109.688 29.5452C109.008 29.8323 108.258 29.9758 107.438 29.9758C106.611 29.9758 105.855 29.8323 105.17 29.5452C104.49 29.2522 103.898 28.8333 103.395 28.2883C102.896 27.7375 102.51 27.0754 102.234 26.302C101.965 25.5227 101.83 24.6438 101.83 23.6653V23.1467C101.83 22.1682 101.965 21.2893 102.234 20.51C102.51 19.7307 102.894 19.0686 103.386 18.5237C103.884 17.9729 104.473 17.554 105.152 17.2668C105.838 16.9739 106.594 16.8274 107.42 16.8274C108.24 16.8274 108.99 16.9739 109.67 17.2668C110.355 17.554 110.947 17.9729 111.445 18.5237C111.943 19.0686 112.33 19.7307 112.605 20.51C112.881 21.2893 113.019 22.1682 113.019 23.1467ZM109.89 23.6653V23.1292C109.89 22.4963 109.834 21.9397 109.723 21.4592C109.617 20.9729 109.459 20.5657 109.248 20.2375C109.037 19.9094 108.776 19.6633 108.466 19.4993C108.161 19.3293 107.812 19.2444 107.42 19.2444C107.01 19.2444 106.652 19.3293 106.348 19.4993C106.043 19.6633 105.788 19.9094 105.583 20.2375C105.378 20.5657 105.223 20.9729 105.117 21.4592C105.018 21.9397 104.968 22.4963 104.968 23.1292V23.6653C104.968 24.2922 105.018 24.8489 105.117 25.3352C105.223 25.8157 105.378 26.2229 105.583 26.5569C105.794 26.8909 106.052 27.1428 106.356 27.3127C106.667 27.4827 107.027 27.5676 107.438 27.5676C107.83 27.5676 108.179 27.4827 108.483 27.3127C108.788 27.1428 109.043 26.8909 109.248 26.5569C109.459 26.2229 109.617 25.8157 109.723 25.3352C109.834 24.8489 109.89 24.2922 109.89 23.6653Z" fill="white"/>
<defs>
<linearGradient id="paint0_linear_534_2573" x1="0" y1="15" x2="30" y2="15" gradientUnits="userSpaceOnUse">
<stop stop-color="#F12711"/>
<stop offset="1" stop-color="#F5AF19"/>
</linearGradient>
<linearGradient id="paint1_linear_534_2573" x1="0" y1="15" x2="30" y2="15" gradientUnits="userSpaceOnUse">
<stop stop-color="#40E0D0"/>
<stop offset="0.5" stop-color="#FF8C00"/>
<stop offset="1" stop-color="#FF0080"/>
</linearGradient>
<linearGradient id="paint2_linear_534_2573" x1="0" y1="15" x2="30" y2="15" gradientUnits="userSpaceOnUse">
<stop stop-color="#12C2E9"/>
<stop offset="0.5" stop-color="#C471ED"/>
<stop offset="1" stop-color="#F64F59"/>
</linearGradient>
<clipPath id="clip0_534_2573">
<rect width="15" height="15" fill="white"/>
</clipPath>
<clipPath id="clip1_534_2573">
<rect width="15" height="15" fill="white" transform="translate(15 15)"/>
</clipPath>
</defs>
</svg>
